<svg width="24" height="24" viewBox="0 0 24 24" fill="none" xmlns="http://www.w3.org/2000/svg">
	<path d="M17.3571 18.4286V6.28571C17.3571 5.33851 16.9808 4.4301 16.3111 3.76033C15.6413 3.09055 14.7329 2.71428 13.7857 2.71428H10.2143C9.26705 2.71428 8.35864 3.09055 7.68887 3.76033C7.0191 4.4301 6.64282 5.33851 6.64282 6.28571V18.4286C6.64282 19.1863 6.94384 19.9131 7.47966 20.4489C8.01548 20.9847 8.7422 21.2857 9.49997 21.2857H10.9285C11.6863 21.2857 12.413 20.9847 12.9488 20.4489C13.4847 19.9131 13.7857 19.1863 13.7857 18.4286V7.71428C13.7857 7.3354 13.6352 6.97204 13.3673 6.70413C13.0994 6.43622 12.736 6.28571 12.3571 6.28571H11.6428C11.2639 6.28571 10.9006 6.43622 10.6327 6.70413C10.3648 6.97204 10.2143 7.3354 10.2143 7.71428V15.5714" stroke="#BCC6CC" stroke-width="1.5" stroke-linecap="round" stroke-linejoin="round"/>
</svg>
