<svg width="16" height="16" viewBox="0 0 16 16" fill="none" xmlns="http://www.w3.org/2000/svg">
<path d="M8.00011 10.3833C8.75567 10.3833 9.39723 10.1193 9.92478 9.59133C10.4528 9.06378 10.7168 8.42222 10.7168 7.66667C10.7168 6.91111 10.4528 6.26956 9.92478 5.742C9.39723 5.214 8.75567 4.95 8.00011 4.95C7.24456 4.95 6.603 5.214 6.07545 5.742C5.54745 6.26956 5.28345 6.91111 5.28345 7.66667C5.28345 8.42222 5.54745 9.06378 6.07545 9.59133C6.603 10.1193 7.24456 10.3833 8.00011 10.3833ZM8.00011 9.46667C7.50011 9.46667 7.07523 9.29155 6.72545 8.94133C6.37523 8.59156 6.20011 8.16667 6.20011 7.66667C6.20011 7.16667 6.37523 6.74156 6.72545 6.39133C7.07523 6.04156 7.50011 5.86667 8.00011 5.86667C8.50011 5.86667 8.92523 6.04156 9.27545 6.39133C9.62523 6.74156 9.80011 7.16667 9.80011 7.66667C9.80011 8.16667 9.62523 8.59156 9.27545 8.94133C8.92523 9.29155 8.50011 9.46667 8.00011 9.46667ZM8.00011 12.3333C6.46678 12.3333 5.06967 11.9111 3.80878 11.0667C2.54745 10.2222 1.62234 9.08889 1.03345 7.66667C1.62234 6.24444 2.54745 5.11111 3.80878 4.26667C5.06967 3.42222 6.46678 3 8.00011 3C9.53345 3 10.9308 3.42222 12.1921 4.26667C13.453 5.11111 14.3779 6.24444 14.9668 7.66667C14.3779 9.08889 13.453 10.2222 12.1921 11.0667C10.9308 11.9111 9.53345 12.3333 8.00011 12.3333ZM8.00011 11.3333C9.25567 11.3333 10.4086 11.0027 11.4588 10.3413C12.5086 9.68044 13.3112 8.78889 13.8668 7.66667C13.3112 6.54444 12.5086 5.65267 11.4588 4.99133C10.4086 4.33044 9.25567 4 8.00011 4C6.74456 4 5.59167 4.33044 4.54145 4.99133C3.49167 5.65267 2.689 6.54444 2.13345 7.66667C2.689 8.78889 3.49167 9.68044 4.54145 10.3413C5.59167 11.0027 6.74456 11.3333 8.00011 11.3333Z" fill="#212121"/>
</svg>
