<svg width="24" height="24" viewBox="0 0 24 24" fill="none" xmlns="http://www.w3.org/2000/svg">
    <path d="M8.46299 12.21C8.46299 11.754 8.14619 11.4816 7.58759 11.4816C7.35959 11.4816 7.20539 11.5038 7.12439 11.5254V12.99C7.22039 13.0116 7.33799 13.0194 7.49939 13.0194C8.09519 13.0194 8.46299 12.7176 8.46299 12.21ZM11.9226 11.496C11.6724 11.496 11.5104 11.5182 11.4144 11.5404V14.7852C11.5104 14.8074 11.6646 14.8074 11.8044 14.8074C12.8196 14.8146 13.482 14.2554 13.482 13.071C13.4898 12.0408 12.8862 11.496 11.9226 11.496Z" fill="#131212"/>
    <path d="M18.5508 9.5898H18.144V7.6272C18.1437 7.61473 18.1425 7.6023 18.1404 7.59C18.1411 7.51107 18.1131 7.43456 18.0618 7.3746L14.796 3.645L14.7936 3.6426C14.7521 3.5976 14.6993 3.56463 14.6406 3.5472L14.6226 3.5412C14.5977 3.53499 14.5721 3.53176 14.5464 3.5316H6.5202C6.1536 3.5316 5.856 3.8298 5.856 4.1958V9.5898H5.4492C4.9248 9.5898 4.5 10.0146 4.5 10.539V15.4758C4.5 15.9996 4.9254 16.425 5.4492 16.425H5.856V19.8048C5.856 20.1708 6.1536 20.469 6.5202 20.469H17.4798C17.8458 20.469 18.144 20.1708 18.144 19.8048V16.425H18.5508C19.0752 16.425 19.5 15.9996 19.5 15.4758V10.539C19.5 10.0146 19.0746 9.5898 18.5508 9.5898ZM6.5202 4.1958H14.214V7.5942C14.214 7.7778 14.3628 7.926 14.5464 7.926H17.4804V9.5898H6.5202V4.1958ZM14.6742 13.0338C14.6742 13.983 14.3286 14.6382 13.8492 15.0426C13.3272 15.4764 12.5328 15.6828 11.5614 15.6828C10.98 15.6828 10.5684 15.6456 10.2882 15.6096V10.7382C10.7004 10.6722 11.2374 10.6356 11.8044 10.6356C12.7458 10.6356 13.3566 10.8048 13.8348 11.1654C14.3502 11.5476 14.6742 12.1584 14.6742 13.0338ZM6.0126 15.6318V10.7382C6.3582 10.6794 6.8442 10.6356 7.5282 10.6356C8.22 10.6356 8.7132 10.7682 9.0438 11.0328C9.36 11.283 9.573 11.6952 9.573 12.1806C9.573 12.6666 9.4116 13.0782 9.117 13.3578C8.7342 13.7184 8.1678 13.8804 7.5054 13.8804C7.3584 13.8804 7.2258 13.8732 7.1232 13.8582V15.6318H6.0126ZM17.4798 19.6248H6.5202V16.425H17.4798V19.6248ZM18.4422 11.592H16.536V12.7254H18.3168V13.638H16.536V15.6318H15.411V10.6722H18.4422V11.592Z" fill="#131212"/>
</svg>
