<svg width="25" height="24" viewBox="0 0 25 24" fill="none" xmlns="http://www.w3.org/2000/svg">
<path fill-rule="evenodd" clip-rule="evenodd" d="M7.25 2C7.80228 2 8.25 2.44772 8.25 3V4H16.25V3C16.25 2.44772 16.6977 2 17.25 2C17.8023 2 18.25 2.44772 18.25 3V4H19.25C20.9069 4 22.25 5.34315 22.25 7V19C22.25 20.6569 20.9069 22 19.25 22H5.25C3.59315 22 2.25 20.6569 2.25 19V7C2.25 5.34315 3.59315 4 5.25 4H6.25V3C6.25 2.44772 6.69772 2 7.25 2ZM16.25 6V7C16.25 7.55228 16.6977 8 17.25 8C17.8023 8 18.25 7.55228 18.25 7V6H19.25C19.8023 6 20.25 6.44771 20.25 7V19C20.25 19.5523 19.8023 20 19.25 20H5.25C4.69772 20 4.25 19.5523 4.25 19V7C4.25 6.44772 4.69772 6 5.25 6H6.25V7C6.25 7.55228 6.69772 8 7.25 8C7.80228 8 8.25 7.55228 8.25 7V6H16.25Z" fill="#6F767E"/>
<path fill-rule="evenodd" clip-rule="evenodd" d="M16.9571 10.2929C17.3476 10.6834 17.3476 11.3166 16.9571 11.7071L11.9571 16.7071C11.5666 17.0976 10.9334 17.0976 10.5429 16.7071L8.04289 14.2071C7.65237 13.8166 7.65237 13.1834 8.04289 12.7929C8.43342 12.4024 9.06658 12.4024 9.45711 12.7929L11.25 14.5858L15.5429 10.2929C15.9334 9.90237 16.5666 9.90237 16.9571 10.2929Z" fill="#6F767E"/>
</svg>
